<svg width="112" height="120" viewBox="0 0 112 120" fill="none" xmlns="http://www.w3.org/2000/svg">
<rect x="18.9297" y="101.299" width="9.46479" height="18.7013" rx="4.73239" fill="#878BFC"/>
<rect x="83.6055" y="101.299" width="9.46479" height="18.7013" rx="4.73239" fill="#878BFC"/>
<rect width="112" height="110.649" rx="10" fill="#D8D9FE"/>
<rect x="6.30981" y="6.23376" width="99.3803" height="98.1818" rx="6" fill="#EDEDFF"/>
<rect opacity="0.5" x="14.1973" y="13.6919" width="4" height="4" rx="2" fill="#878BFC"/>
<rect opacity="0.5" x="21.1973" y="13.6919" width="4" height="4" rx="2" fill="#878BFC"/>
<rect opacity="0.5" x="28.1973" y="13.6919" width="4" height="4" rx="2" fill="#878BFC"/>
<g filter="url(#filter0_d_6_13839)">
<ellipse cx="56.0002" cy="58.4414" rx="22.8732" ry="22.5974" stroke="url(#paint0_linear_6_13839)" stroke-width="4"/>
</g>
<path opacity="0.5" fill-rule="evenodd" clip-rule="evenodd" d="M66.5967 50.1766C67.2127 49.568 67.2127 48.5812 66.5967 47.9726C65.9806 47.364 64.9818 47.364 64.3658 47.9726L56 56.2375L47.6342 47.9726C47.0182 47.364 46.0194 47.364 45.4033 47.9726C44.7873 48.5812 44.7873 49.568 45.4033 50.1766L53.7691 58.4415L45.4034 66.7063C44.7874 67.315 44.7874 68.3017 45.4034 68.9103C46.0194 69.5189 47.0182 69.5189 47.6343 68.9103L56 60.6455L64.3657 68.9103C64.9818 69.5189 65.9806 69.5189 66.5966 68.9103C67.2126 68.3017 67.2126 67.315 66.5966 66.7064L58.2309 58.4415L66.5967 50.1766Z" fill="#878BFC"/>
<ellipse cx="55.9998" cy="58.4414" rx="3.94366" ry="3.8961" fill="url(#paint1_linear_6_13839)"/>
<rect x="102.535" y="21.8182" width="6.30986" height="14.026" rx="2" fill="url(#paint2_linear_6_13839)"/>
<rect x="102.535" y="77.9221" width="6.30986" height="14.026" rx="2" fill="url(#paint3_linear_6_13839)"/>
<defs>
<filter id="filter0_d_6_13839" x="23.127" y="26.844" width="65.7466" height="65.1948" filterUnits="userSpaceOnUse" color-interpolation-filters="sRGB">
<feFlood flood-opacity="0" result="BackgroundImageFix"/>
<feColorMatrix in="SourceAlpha" type="matrix" values="0 0 0 0 0 0 0 0 0 0 0 0 0 0 0 0 0 0 127 0" result="hardAlpha"/>
<feOffset dy="1"/>
<feGaussianBlur stdDeviation="4"/>
<feColorMatrix type="matrix" values="0 0 0 0 0.145098 0 0 0 0 0.152941 0 0 0 0 0.239216 0 0 0 0.1 0"/>
<feBlend mode="normal" in2="BackgroundImageFix" result="effect1_dropShadow_6_13839"/>
<feBlend mode="normal" in="SourceGraphic" in2="effect1_dropShadow_6_13839" result="shape"/>
</filter>
<linearGradient id="paint0_linear_6_13839" x1="33.127" y1="35.844" x2="76.2479" y2="82.6905" gradientUnits="userSpaceOnUse">
<stop stop-color="#2A30EE"/>
<stop offset="1" stop-color="#A4A6FF"/>
</linearGradient>
<linearGradient id="paint1_linear_6_13839" x1="52.0562" y1="54.5453" x2="59.4908" y2="62.6223" gradientUnits="userSpaceOnUse">
<stop stop-color="#2A30EE"/>
<stop offset="1" stop-color="#A4A6FF"/>
</linearGradient>
<linearGradient id="paint2_linear_6_13839" x1="102.535" y1="21.8182" x2="113.051" y2="26.8958" gradientUnits="userSpaceOnUse">
<stop stop-color="#2A30EE"/>
<stop offset="1" stop-color="#A4A6FF"/>
</linearGradient>
<linearGradient id="paint3_linear_6_13839" x1="102.535" y1="77.9221" x2="113.051" y2="82.9996" gradientUnits="userSpaceOnUse">
<stop stop-color="#2A30EE"/>
<stop offset="1" stop-color="#A4A6FF"/>
</linearGradient>
</defs>
</svg>
