<svg width="100" height="100" viewBox="0 0 100 100" fill="none" xmlns="http://www.w3.org/2000/svg"><g id="transaction"><circle id="circle_bg" cx="50" cy="50" r="50" fill="url(#paint0_linear_2_13)"/><path id="rec_bg" opacity="0.8" d="M44.3433 23.1299C47.4675 20.0057 52.5328 20.0057 55.657 23.1299L76.8702 44.3431C79.9944 47.4673 79.9944 52.5327 76.8702 55.6568L55.657 76.87C52.5328 79.9942 47.4675 79.9942 44.3433 76.87L23.1301 55.6568C20.0059 52.5327 20.0059 47.4673 23.1301 44.3431L44.3433 23.1299Z" fill="white"/><g id="Union"><path d="M56.9393 39.9393C57.5251 39.3536 58.4749 39.3536 59.0607 39.9393L62.5607 43.4393C63.1464 44.0251 63.1464 44.9749 62.5607 45.5607L59.0607 49.0607C58.4749 49.6464 57.5251 49.6464 56.9393 49.0607C56.3536 48.4749 56.3536 47.5251 56.9393 46.9393L57.8787 46H52C51.1716 46 50.5 45.3284 50.5 44.5C50.5 43.6716 51.1716 43 52 43H57.8787L56.9393 42.0607C56.3536 41.4749 56.3536 40.5251 56.9393 39.9393Z" fill="url(#paint1_linear_2_13)"/><path d="M44.5 44.5C44.5 43.6716 45.1716 43 46 43H48C48.8284 43 49.5 43.6716 49.5 44.5C49.5 45.3284 48.8284 46 48 46H46C45.1716 46 44.5 45.3284 44.5 44.5Z" fill="url(#paint2_linear_2_13)"/><path d="M41 43C40.1716 43 39.5 43.6716 39.5 44.5C39.5 45.3284 40.1716 46 41 46H42C42.8284 46 43.5 45.3284 43.5 44.5C43.5 43.6716 42.8284 43 42 43H41Z" fill="url(#paint3_linear_2_13)"/></g><g id="Union_2"><path d="M40.5607 50.9393C39.9749 50.3536 39.0251 50.3536 38.4393 50.9393L34.9393 54.4393C34.3536 55.0251 34.3536 55.9749 34.9393 56.5607L38.4393 60.0607C39.0251 60.6464 39.9749 60.6464 40.5607 60.0607C41.1464 59.4749 41.1464 58.5251 40.5607 57.9393L39.6213 57H45.5C46.3284 57 47 56.3284 47 55.5C47 54.6716 46.3284 54 45.5 54H39.6213L40.5607 53.0607C41.1464 52.4749 41.1464 51.5251 40.5607 50.9393Z" fill="url(#paint4_linear_2_13)"/><path d="M53 55.5C53 54.6716 52.3284 54 51.5 54H49.5C48.6716 54 48 54.6716 48 55.5C48 56.3284 48.6716 57 49.5 57H51.5C52.3284 57 53 56.3284 53 55.5Z" fill="url(#paint5_linear_2_13)"/><path d="M56.5 54C57.3284 54 58 54.6716 58 55.5C58 56.3284 57.3284 57 56.5 57H55.5C54.6716 57 54 56.3284 54 55.5C54 54.6716 54.6716 54 55.5 54H56.5Z" fill="url(#paint6_linear_2_13)"/></g></g><defs><linearGradient id="paint0_linear_2_13" x1="21" y1="11" x2="80" y2="95" gradientUnits="userSpaceOnUse"><stop stop-color="#EFC8E9"/><stop offset="0.244792" stop-color="#FBC5D5"/><stop offset="1" stop-color="#F6DACE"/></linearGradient><linearGradient id="paint1_linear_2_13" x1="63" y1="44.5" x2="39" y2="44.5" gradientUnits="userSpaceOnUse"><stop stop-color="#575CF3"/><stop offset="0.805556" stop-color="#A4A6FF"/></linearGradient><linearGradient id="paint2_linear_2_13" x1="63" y1="44.5" x2="39" y2="44.5" gradientUnits="userSpaceOnUse"><stop stop-color="#575CF3"/><stop offset="0.805556" stop-color="#A4A6FF"/></linearGradient><linearGradient id="paint3_linear_2_13" x1="63" y1="44.5" x2="39" y2="44.5" gradientUnits="userSpaceOnUse"><stop stop-color="#575CF3"/><stop offset="0.805556" stop-color="#A4A6FF"/></linearGradient><linearGradient id="paint4_linear_2_13" x1="58" y1="55.5" x2="34" y2="55.5" gradientUnits="userSpaceOnUse"><stop stop-color="#A4A6FF"/><stop offset="1" stop-color="#575CF3"/></linearGradient><linearGradient id="paint5_linear_2_13" x1="58" y1="55.5" x2="34" y2="55.5" gradientUnits="userSpaceOnUse"><stop stop-color="#A4A6FF"/><stop offset="1" stop-color="#575CF3"/></linearGradient><linearGradient id="paint6_linear_2_13" x1="58" y1="55.5" x2="34" y2="55.5" gradientUnits="userSpaceOnUse"><stop stop-color="#A4A6FF"/><stop offset="1" stop-color="#575CF3"/></linearGradient></defs></svg>