<svg width="100" height="98" viewBox="0 0 100 98" fill="none" xmlns="http://www.w3.org/2000/svg"><g id="peopel"><ellipse id="circle_bg" cx="50" cy="49" rx="50" ry="49" fill="url(#paint0_linear_2_5)"/><g id="people"><rect id="rec_bg" opacity="0.8" x="27.0002" y="27" width="46" height="46" rx="8" fill="white"/><g id="Group 1"><g id="People" opacity="0.5"><circle id="Ellipse 328" opacity="0.8" cx="39.7775" cy="47.098" r="3.20058" transform="rotate(-15 39.778 47.098)" fill="url(#paint1_linear_2_5)"/><path id="Ellipse 329" d="M46.7063 52.2707C47.113 53.7884 48.1689 60.2034 43.6158 61.4234C39.0627 62.6434 36.9923 56.5002 36.5857 54.9825C36.179 53.4648 36.1617 51.8167 40.7148 50.5967C45.2679 49.3767 46.2996 50.753 46.7063 52.2707Z" fill="url(#paint2_linear_2_5)"/></g><g id="People_2" opacity="0.5"><circle id="Ellipse 328_2" opacity="0.8" cx="60.8009" cy="46.9845" r="3.23117" transform="rotate(15 60.8 46.984)" fill="url(#paint3_linear_2_5)"/><path id="Ellipse 329_2" d="M64.2477 55.0044C63.8372 56.5366 61.5222 62.6783 56.9256 61.4467C52.329 60.215 53.6198 53.7989 54.0304 52.2667C54.4409 50.7345 55.2578 49.2849 59.8543 50.5165C64.4509 51.7482 64.6583 53.4722 64.2477 55.0044Z" fill="url(#paint4_linear_2_5)"/></g><g id="People_3"><circle id="Ellipse 328_3" opacity="0.8" cx="50.3829" cy="42.4293" r="4.42929" fill="url(#paint5_linear_2_5)"/><path id="Ellipse 329_3" d="M57.7922 51.8256C57.7922 54 56.906 62.9535 50.3827 62.9535C43.8594 62.9535 43.2922 54 43.2922 51.8256C43.2922 49.6512 43.8594 47.4419 50.3827 47.4419C56.906 47.4419 57.7922 49.6512 57.7922 51.8256Z" fill="url(#paint6_linear_2_5)"/></g></g><path id="Star" d="M60.3124 30.5069C60.3769 30.3328 60.6231 30.3328 60.6876 30.5069L61.1433 31.7385C61.1636 31.7933 61.2067 31.8364 61.2615 31.8567L62.4931 32.3124C62.6672 32.3769 62.6672 32.6231 62.4931 32.6876L61.2615 33.1433C61.2067 33.1636 61.1636 33.2067 61.1433 33.2615L60.6876 34.4931C60.6231 34.6672 60.3769 34.6672 60.3124 34.4931L59.8567 33.2615C59.8364 33.2067 59.7933 33.1636 59.7385 33.1433L58.5069 32.6876C58.3328 32.6231 58.3328 32.3769 58.5069 32.3124L59.7385 31.8567C59.7933 31.8364 59.8364 31.7933 59.8567 31.7385L60.3124 30.5069Z" fill="url(#paint7_radial_2_5)"/><path id="Star_2" d="M56.3124 35.5069C56.3769 35.3328 56.6231 35.3328 56.6876 35.5069L56.8732 36.0086C56.8935 36.0634 56.9366 36.1065 56.9914 36.1268L57.4931 36.3124C57.6672 36.3769 57.6672 36.6231 57.4931 36.6876L56.9914 36.8732C56.9366 36.8935 56.8935 36.9366 56.8732 36.9914L56.6876 37.4931C56.6231 37.6672 56.3769 37.6672 56.3124 37.4931L56.1268 36.9914C56.1065 36.9366 56.0634 36.8935 56.0086 36.8732L55.5069 36.6876C55.3328 36.6231 55.3328 36.3769 55.5069 36.3124L56.0086 36.1268C56.0634 36.1065 56.1065 36.0634 56.1268 36.0086L56.3124 35.5069Z" fill="url(#paint8_radial_2_5)"/></g></g><defs><linearGradient id="paint0_linear_2_5" x1="21" y1="10.78" x2="78.4147" y2="94.1912" gradientUnits="userSpaceOnUse"><stop stop-color="#FFD0E8"/><stop offset="1" stop-color="#97F2E9"/></linearGradient><linearGradient id="paint1_linear_2_5" x1="36.5769" y1="43.8974" x2="42.69" y2="50.4586" gradientUnits="userSpaceOnUse"><stop stop-color="#2A30EE"/><stop offset="1" stop-color="#A4A6FF"/></linearGradient><linearGradient id="paint2_linear_2_5" x1="35.7658" y1="51.9228" x2="48.9177" y2="59.5449" gradientUnits="userSpaceOnUse"><stop stop-color="#2A30EE"/><stop offset="1" stop-color="#A4A6FF"/></linearGradient><linearGradient id="paint3_linear_2_5" x1="57.5698" y1="43.7533" x2="63.7413" y2="50.3772" gradientUnits="userSpaceOnUse"><stop stop-color="#2A30EE"/><stop offset="1" stop-color="#A4A6FF"/></linearGradient><linearGradient id="paint4_linear_2_5" x1="54.8581" y1="49.1778" x2="62.5093" y2="62.4806" gradientUnits="userSpaceOnUse"><stop stop-color="#2A30EE"/><stop offset="1" stop-color="#A4A6FF"/></linearGradient><linearGradient id="paint5_linear_2_5" x1="45.9537" y1="38" x2="54.4136" y2="47.08" gradientUnits="userSpaceOnUse"><stop stop-color="#2A30EE"/><stop offset="1" stop-color="#A4A6FF"/></linearGradient><linearGradient id="paint6_linear_2_5" x1="43.2922" y1="47.4419" x2="58.1428" y2="62.3415" gradientUnits="userSpaceOnUse"><stop stop-color="#2A30EE"/><stop offset="1" stop-color="#A4A6FF"/></linearGradient><radialGradient id="paint7_radial_2_5" cx="0" cy="0" r="1" gradientUnits="userSpaceOnUse" gradientTransform="rotate(40.834 -12.512 94.21) scale(4.9563 15.2724)"><stop stop-color="#FFCCEB"/><stop offset="0.473958" stop-color="#BFC6FF"/><stop offset="1" stop-color="#96E4D2"/></radialGradient><radialGradient id="paint8_radial_2_5" cx="0" cy="0" r="1" gradientUnits="userSpaceOnUse" gradientTransform="rotate(40.834 -20.243 92.16) scale(2.97378 9.16342)"><stop stop-color="#FFCCEB"/><stop offset="0.473958" stop-color="#BFC6FF"/><stop offset="1" stop-color="#96E4D2"/></radialGradient></defs></svg>