<svg width="100" height="100" viewBox="0 0 100 100" fill="none" xmlns="http://www.w3.org/2000/svg"><g id="order"><circle id="circle_bg" cx="50" cy="50" r="50" fill="url(#paint0_linear_2_21)"/><path id="polygon" opacity="0.8" d="M45.5 19.3094C47.9752 17.8803 51.0248 17.8803 53.5 19.3094L74.5118 31.4406C76.9871 32.8697 78.5118 35.5107 78.5118 38.3688V62.6312C78.5118 65.4893 76.9871 68.1303 74.5118 69.5594L53.5 81.6906C51.0248 83.1197 47.9752 83.1197 45.5 81.6906L24.4881 69.5594C22.0129 68.1303 20.4881 65.4893 20.4881 62.6312V38.3688C20.4881 35.5107 22.0129 32.8697 24.4881 31.4406L45.5 19.3094Z" fill="white"/><g id="Group 4"><path id="Rectangle 3" opacity="0.3" d="M47.8787 45.1213C49.0503 43.9497 50.9497 43.9497 52.1213 45.1213L61.7987 54.7987C63.001 56.001 62.9647 57.9613 61.7187 59.1184L52.0414 68.1045C50.8903 69.1733 49.1097 69.1733 47.9586 68.1045L38.2813 59.1184C37.0353 57.9613 36.999 56.001 38.2013 54.7987L47.8787 45.1213Z" fill="url(#paint1_linear_2_21)"/><path id="Rectangle 2" d="M47.8787 39.1213C49.0503 37.9497 50.9497 37.9497 52.1213 39.1213L61.7987 48.7987C63.001 50.001 62.9647 51.9613 61.7187 53.1184L52.0414 62.1045C50.8903 63.1733 49.1097 63.1733 47.9586 62.1045L38.2813 53.1184C37.0353 51.9613 36.999 50.001 38.2013 48.7987L47.8787 39.1213Z" fill="url(#paint2_linear_2_21)"/><path id="Rectangle 1" d="M48.0476 33.6735C49.1711 32.7105 50.8289 32.7105 51.9524 33.6735L61.4471 41.8118C62.8075 42.9779 62.8491 45.0687 61.5361 46.2879L52.0414 55.1045C50.8903 56.1733 49.1097 56.1733 47.9586 55.1045L38.4639 46.2879C37.1509 45.0687 37.1925 42.9779 38.5529 41.8118L48.0476 33.6735Z" fill="url(#paint3_linear_2_21)"/></g></g><defs><linearGradient id="paint0_linear_2_21" x1="50" y1="1.39502e-06" x2="90.625" y2="78.125" gradientUnits="userSpaceOnUse"><stop stop-color="#F8F9CD"/><stop offset="0.660074" stop-color="#BFF1EC"/><stop offset="1" stop-color="#DCE6FF"/></linearGradient><linearGradient id="paint1_linear_2_21" x1="80.1152" y1="56.6152" x2="37.1152" y2="56.6152" gradientUnits="userSpaceOnUse"><stop stop-color="#2A30EE"/><stop offset="0.805556" stop-color="#A4A6FF"/></linearGradient><linearGradient id="paint2_linear_2_21" x1="80.1152" y1="50.6152" x2="37.1152" y2="50.6152" gradientUnits="userSpaceOnUse"><stop stop-color="#7A7EF4"/><stop offset="0.805556" stop-color="#CACBFF"/></linearGradient><linearGradient id="paint3_linear_2_21" x1="80.1152" y1="43.6152" x2="37.1152" y2="43.6152" gradientUnits="userSpaceOnUse"><stop stop-color="#2A30EE"/><stop offset="0.805556" stop-color="#A4A6FF"/></linearGradient></defs></svg>